# xmcd
#
# Track frame offsets:
#	150
#	12348
#	27301
#	39159
#	55999
#	68699
#	81099
#	95841
#	109072
#	124767
#	137730
#	147487
#	159736
#	170044
#	180833
#	193381
#	206279
#	218820
#	234599
#	248575
#
# Disc length: 3434 seconds
#
# Revision: 7
# Processed by: cddbd v1.5.2PL0 Copyright (c) Steve Scherf et al.
# Submitted via: audiograbber 1.83.01
#
DISCID=1b0d6814
DTITLE=Various Artist - 20 Great Country Hits - Volume 17
DYEAR=1999
DGENRE=Oldies
TTITLE0=Hank Williams - Your Cheatin' Heart
TTITLE1=Olivia Newton John - Take Me Home Country Roads
TTITLE2=Justin Tubb - Lodi
TTITLE3=Bobby Bare - Sylvia's Mother
TTITLE4=Kenny Rogers - Ruben James
TTITLE5=Hank Williams - Cold Cold Heart
TTITLE6=Andy Williams - The Long And Winding Road
TTITLE7=Roy Acuff - Tennessee Waltz
TTITLE8=Hank Williams - Wabash Cannonball
TTITLE9=Charly Rich - The Most Beautiful Girl
TTITLE10=Faron Young - Country Girl
TTITLE11=Frankie Lane - High Noon
TTITLE12=Waylon Jennings - White Lightnin'
TTITLE13=Conway Twitty - The Hurt In My Heart
TTITLE14=Freddy Fender - Silver Wings
TTITLE15=Don Williams - Where Do We Go From Here
TTITLE16=Hank Williams - I'm So Lonesome I Could Cry
TTITLE17=Kenny Rogers - The Gambler
TTITLE18=Johnny Paycheck - To Give My Love To
TTITLE19=Dorsey Burnette - Together Again
EXTD=
EXTT0=
EXTT1=
EXTT2=
EXTT3=
EXTT4=
EXTT5=
EXTT6=
EXTT7=
EXTT8=
EXTT9=
EXTT10=
EXTT11=
EXTT12=
EXTT13=
EXTT14=
EXTT15=
EXTT16=
EXTT17=
EXTT18=
EXTT19=
PLAYORDER=
